<svg aria-hidden="true" style="position: absolute; width: 0; height: 0; overflow: hidden;" version="1.1"
     xmlns="http://www.w3.org/2000/svg" xmlns:xlink="http://www.w3.org/1999/xlink">
    <defs>
        <symbol id="icon-menu" viewBox="0 0 32 32">
            <path d="M29.333 24.007c0 0.733-0.595 1.327-1.327 1.327h-10.68c-0.733 0-1.327-0.594-1.327-1.327s0.594-1.327 1.327-1.327h10.68c0.733 0 1.327 0.593 1.327 1.327zM29.333 16c0 0.733-0.595 1.327-1.327 1.327h-24.013c-0.733 0-1.327-0.594-1.327-1.327s0.594-1.327 1.327-1.327h24.013c0.733 0 1.327 0.595 1.327 1.327zM28.007 9.32c0.733 0 1.327-0.594 1.327-1.327s-0.594-1.327-1.327-1.327h-16.013c-0.733 0-1.327 0.594-1.327 1.327s0.594 1.327 1.327 1.327h16.013z"></path>
        </symbol>
        <symbol id="icon-close" viewBox="0 0 24 24">
            <path stroke-linejoin="miter" stroke-linecap="round" stroke-miterlimit="4" stroke-width="2" d="M9 6l6 6 6-6M9 18l6-6 6 6"></path>
        </symbol>
        <symbol id="icon-marketer" viewBox="0 0 32 32">
            <path fill="none" stroke="#ffc93e" style="stroke: var(--color1, #ffc93e)" stroke-linejoin="round" stroke-linecap="round" stroke-miterlimit="4" stroke-width="1.25" d="M12 22.667h4M5.333 5.333v21.333c0 0.707 0.281 1.386 0.781 1.886s1.178 0.781 1.886 0.781h16c0.707 0 1.386-0.281 1.886-0.781s0.781-1.178 0.781-1.886v-15.544c0-0.355-0.071-0.707-0.209-1.034s-0.34-0.624-0.594-0.872l-5.92-5.789c-0.498-0.487-1.167-0.76-1.864-0.76h-10.080c-0.707 0-1.386 0.281-1.886 0.781s-0.781 1.178-0.781 1.886v0zM12 17.333v0z"></path>
            <path fill="none" stroke="#ffc93e" style="stroke: var(--color1, #ffc93e)" stroke-linejoin="round" stroke-linecap="butt" stroke-miterlimit="4" stroke-width="1.25" d="M18.667 2.667v5.333c0 0.707 0.281 1.386 0.781 1.886s1.178 0.781 1.886 0.781h5.333"></path>
        </symbol>
        <symbol id="icon-designer" viewBox="0 0 32 32">
            <path fill="#ffc93e" style="fill: var(--color1, #ffc93e)" d="M9.333 15.563v7.104h7.104l-1.482-1.482h-4.141v-4.141l-1.482-1.482z"></path>
            <path fill="#ffc93e" style="fill: var(--color1, #ffc93e)" d="M28.496 26.585l-2.126-2.156v1.941h-20.741v-3.074h1.481v-1.185h-1.481v-4.926h1.481v-1.185h-1.481v-4.741h1.481v-1.185h-1.481v-4.141l11.807 11.741v-2.089l-12.022-11.963c-0.104-0.104-0.236-0.176-0.38-0.205s-0.294-0.014-0.43 0.042c-0.136 0.056-0.252 0.152-0.333 0.275s-0.124 0.267-0.123 0.414v22.963c0 0.196 0.078 0.385 0.217 0.524s0.327 0.217 0.524 0.217h23.081c0.147 0.001 0.291-0.042 0.414-0.123s0.218-0.197 0.275-0.333c0.056-0.136 0.071-0.285 0.042-0.43s-0.1-0.277-0.205-0.38z"></path>
            <path fill="#ffc93e" style="fill: var(--color1, #ffc93e)" d="M20.444 24.889h2.963c0.393 0 0.77-0.156 1.048-0.434s0.434-0.655 0.434-1.048v-14.296l-1.704-3.133c-0.132-0.228-0.322-0.417-0.551-0.547s-0.489-0.197-0.753-0.193c-0.27 0.002-0.533 0.078-0.763 0.219s-0.417 0.342-0.541 0.581l-1.615 3.089v14.282c0 0.393 0.156 0.77 0.434 1.048s0.655 0.434 1.048 0.434zM20.444 9.481l1.437-2.793 1.526 2.8v10.956h-2.963v-10.963zM20.444 21.652h2.963v1.807h-2.963v-1.807z"></path>
        </symbol>
        <symbol id="icon-web" viewBox="0 0 32 32">
            <path fill="none" stroke="#ffc93e" style="stroke: var(--color1, #ffc93e)" stroke-linejoin="round" stroke-linecap="round" stroke-miterlimit="4" stroke-width="1.25" d="M10.667 26.667h10.667M2.667 8c0-0.707 0.281-1.386 0.781-1.886s1.178-0.781 1.886-0.781h21.333c0.707 0 1.386 0.281 1.886 0.781s0.781 1.178 0.781 1.886v12c0 0.707-0.281 1.386-0.781 1.886s-1.178 0.781-1.886 0.781h-21.333c-0.707 0-1.386-0.281-1.886-0.781s-0.781-1.178-0.781-1.886v-12z"></path>
        </symbol>
        <symbol id="icon-assistant" viewBox="0 0 32 32">
            <path fill="none" stroke="#ffc93e" style="stroke: var(--color1, #ffc93e)" stroke-linejoin="round" stroke-linecap="round" stroke-miterlimit="4" stroke-width="1.25" d="M22.234 6.444v0zM24.37 3.518l-8.984 8.984c-0.464 0.463-0.781 1.054-0.91 1.697l-0.83 4.154 4.154-0.831c0.643-0.129 1.233-0.444 1.697-0.908l8.984-8.984c0.27-0.27 0.484-0.59 0.63-0.943s0.221-0.731 0.221-1.113c0-0.382-0.075-0.76-0.221-1.113s-0.36-0.673-0.63-0.943c-0.27-0.27-0.59-0.484-0.943-0.63s-0.731-0.221-1.113-0.221c-0.382 0-0.76 0.075-1.113 0.221s-0.673 0.36-0.943 0.63v0z"></path>
            <path fill="none" stroke="#ffc93e" style="stroke: var(--color1, #ffc93e)" stroke-linejoin="round" stroke-linecap="round" stroke-miterlimit="4" stroke-width="1.25" d="M26.196 21.49v4.706c0 0.832-0.331 1.63-0.919 2.218s-1.386 0.919-2.218 0.919h-17.255c-0.832 0-1.63-0.331-2.218-0.919s-0.919-1.386-0.919-2.218v-17.255c0-0.832 0.331-1.63 0.919-2.218s1.386-0.919 2.218-0.919h4.706"></path>
        </symbol>
        <symbol id="icon-ok" viewBox="0 0 32 32">
            <path fill="none" stroke="#1d1d1d" style="stroke: var(--color1, #1d1d1d)" stroke-linejoin="miter" stroke-linecap="butt" stroke-miterlimit="4" stroke-width="0.3721" d="M15.814 0.372c8.631 0 15.628 6.997 15.628 15.628s-6.997 15.628-15.628 15.628c-8.631 0-15.628-6.997-15.628-15.628s6.997-15.628 15.628-15.628z"></path>
            <path fill="none" stroke="#000" style="stroke: var(--color2, #000)" stroke-linejoin="round" stroke-linecap="round" stroke-miterlimit="4" stroke-width="1.0668" d="M14.146 9.644c0.895-0.504 1.341-0.756 1.831-0.756s0.936 0.252 1.831 0.756l1.245 0.701c0.928 0.523 1.393 0.784 1.648 1.222s0.255 0.971 0.255 2.038v1.235c0 1.067 0 1.6-0.256 2.038-0.255 0.437-0.718 0.699-1.647 1.222l-1.245 0.701c-0.895 0.504-1.341 0.756-1.831 0.756s-0.936-0.252-1.831-0.756l-1.245-0.701c-0.928-0.523-1.393-0.784-1.648-1.222s-0.255-0.971-0.255-2.038v-1.235c0-1.067 0-1.6 0.256-2.038 0.255-0.437 0.718-0.699 1.647-1.222l1.245-0.701z"></path>
            <path fill="none" stroke="#000" style="stroke: var(--color2, #000)" stroke-linejoin="round" stroke-linecap="round" stroke-miterlimit="4" stroke-width="1.0668" d="M13.843 14.696c0 0 0.533 0 1.067 0.948 0 0 1.694-2.37 3.2-2.845M19.449 18.134l0.477 2.283c0.306 1.467 0.459 2.2 0.144 2.548s-0.861 0.049-1.953-0.549l-1.617-0.885c-0.258-0.141-0.387-0.212-0.523-0.212s-0.265 0.071-0.523 0.212l-1.617 0.885c-1.092 0.597-1.639 0.897-1.953 0.549s-0.161-1.081 0.144-2.548l0.477-2.283"></path>
        </symbol>
        <symbol id="icon-arrow" viewBox="0 0 31 32">
            <path stroke-linejoin="round" stroke-linecap="round" stroke-miterlimit="4" stroke-width="3.9461" d="M2.35 29.687l23.633-25.65"></path>
            <path stroke-linejoin="round" stroke-linecap="round" stroke-miterlimit="4" stroke-width="3.9461" d="M6.297 2.065h21.704v21.704"></path>
        </symbol>
    </defs>
</svg>
