<svg xmlns="http://www.w3.org/2000/svg" version="1.1" xmlns:xlink="http://www.w3.org/1999/xlink" width="1000" height="1000"><g clip-path="url(#SvgjsClipPath1003)"><rect width="1000" height="1000" fill="#ffffff"></rect><g transform="matrix(3.5,0,0,3.5,150,150)"><svg xmlns="http://www.w3.org/2000/svg" version="1.1" xmlns:xlink="http://www.w3.org/1999/xlink" width="200" height="200"><svg xmlns="http://www.w3.org/2000/svg" version="1.1" xmlns:xlink="http://www.w3.org/1999/xlink" viewBox="0 0 200 200"><rect width="200" height="200" fill="url('#gradient')"></rect><defs><linearGradient id="gradient" gradientTransform="rotate(45 0.5 0.5)"><stop offset="0%" stop-color="#ffffff"></stop><stop offset="100%" stop-color="#ffffff"></stop></linearGradient><clipPath id="SvgjsClipPath1003"><rect width="1000" height="1000" x="0" y="0" rx="350" ry="350"></rect></clipPath></defs><g><g fill="#000000" transform="matrix(1.446441183394805,0,0,1.446441183394805,8.446607517324225,110.70600833681776)" stroke="#000000" stroke-width="0.2"><path d="M9.89-8.57L9.89-6.03L4.50-6.03L4.50-2.64L10.87-2.64L10.87 0L1.07 0L1.07-14.22L10.89-14.22L10.89-11.57L4.50-11.57L4.50-8.57L9.89-8.57ZM21.36 0L18.07 0Q17.89-0.32 17.75-0.95L17.75-0.95Q16.85 0.20 15.21 0.20L15.21 0.20Q13.72 0.20 12.68-0.71Q11.63-1.61 11.63-2.98L11.63-2.98Q11.63-4.70 12.90-5.58Q14.17-6.46 16.59-6.46L16.59-6.46L17.61-6.46L17.61-7.01Q17.61-8.47 16.35-8.47L16.35-8.47Q15.18-8.47 15.18-7.31L15.18-7.31L11.88-7.31Q11.88-8.85 13.19-9.80Q14.49-10.76 16.51-10.76Q18.54-10.76 19.71-9.78Q20.88-8.79 20.91-7.07L20.91-7.07L20.91-2.39Q20.93-0.94 21.36-0.17L21.36-0.17L21.36 0ZM16.01-2.15L16.01-2.15Q16.62-2.15 17.03-2.41Q17.43-2.68 17.61-3.01L17.61-3.01L17.61-4.70L16.65-4.70Q14.93-4.70 14.93-3.15L14.93-3.15Q14.93-2.71 15.23-2.43Q15.54-2.15 16.01-2.15ZM29.18-10.64L29.12-7.59L28.04-7.67Q26.48-7.67 26.04-6.69L26.04-6.69L26.04 0L22.75 0L22.75-10.57L25.84-10.57L25.95-9.21Q26.78-10.76 28.26-10.76L28.26-10.76Q28.79-10.76 29.18-10.64L29.18-10.64ZM30.24-10.57L33.33-10.57L33.44-9.33Q34.53-10.76 36.46-10.76L36.46-10.76Q38.11-10.76 38.92-9.78Q39.74-8.79 39.77-6.81L39.77-6.81L39.77 0L36.46 0L36.46-6.67Q36.46-7.47 36.14-7.85Q35.82-8.22 34.97-8.22L34.97-8.22Q34.00-8.22 33.54-7.46L33.54-7.46L33.54 0L30.24 0L30.24-10.57ZM53.78-7.47L53.78-6.82Q53.78-4.74 53.01-3.13Q52.24-1.53 50.82-0.67Q49.39 0.20 47.58 0.20Q45.76 0.20 44.36-0.64Q42.95-1.47 42.16-3.03Q41.38-4.58 41.34-6.59L41.34-6.59L41.34-7.39Q41.34-9.48 42.10-11.08Q42.87-12.68 44.30-13.54Q45.73-14.41 47.56-14.41L47.56-14.41Q49.37-14.41 50.78-13.55Q52.20-12.70 52.98-11.11Q53.77-9.52 53.78-7.47L53.78-7.47ZM50.29-6.76L50.29-7.41Q50.29-9.53 49.58-10.63Q48.88-11.73 47.56-11.73L47.56-11.73Q44.98-11.73 44.83-7.86L44.83-7.86L44.82-6.82Q44.82-4.73 45.52-3.60Q46.21-2.48 47.58-2.48L47.58-2.48Q48.88-2.48 49.58-3.58Q50.28-4.69 50.29-6.76L50.29-6.76ZM55.33-10.57L58.42-10.57L58.53-9.33Q59.62-10.76 61.54-10.76L61.54-10.76Q63.19-10.76 64.01-9.78Q64.82-8.79 64.85-6.81L64.85-6.81L64.85 0L61.55 0L61.55-6.67Q61.55-7.47 61.23-7.85Q60.91-8.22 60.06-8.22L60.06-8.22Q59.09-8.22 58.62-7.46L58.62-7.46L58.62 0L55.33 0L55.33-10.57ZM70.15-15L70.15 0L66.85 0L66.85-15L70.15-15ZM75.64-10.57L75.64 0L72.34 0L72.34-10.57L75.64-10.57ZM72.15-13.29L72.15-13.29Q72.15-13.99 72.66-14.44Q73.16-14.89 73.97-14.89Q74.79-14.89 75.29-14.44Q75.80-13.99 75.80-13.29Q75.80-12.59 75.29-12.14Q74.79-11.69 73.97-11.69Q73.16-11.69 72.66-12.14Q72.15-12.59 72.15-13.29ZM77.61-10.57L80.69-10.57L80.80-9.33Q81.89-10.76 83.82-10.76L83.82-10.76Q85.47-10.76 86.28-9.78Q87.10-8.79 87.13-6.81L87.13-6.81L87.13 0L83.83 0L83.83-6.67Q83.83-7.47 83.51-7.85Q83.18-8.22 82.33-8.22L82.33-8.22Q81.37-8.22 80.90-7.46L80.90-7.46L80.90 0L77.61 0L77.61-10.57ZM94.06 0.20L94.06 0.20Q91.63 0.20 90.13-1.25Q88.62-2.71 88.62-5.03L88.62-5.03L88.62-5.30Q88.62-6.92 89.22-8.16Q89.82-9.40 90.98-10.08Q92.13-10.76 93.71-10.76L93.71-10.76Q95.94-10.76 97.23-9.38Q98.52-8.00 98.52-5.53L98.52-5.53L98.52-4.25L91.97-4.25Q92.15-3.36 92.74-2.85Q93.34-2.34 94.29-2.34L94.29-2.34Q95.85-2.34 96.73-3.44L96.73-3.44L98.23-1.66Q97.62-0.81 96.49-0.31Q95.36 0.20 94.06 0.20ZM93.69-8.22L93.69-8.22Q92.25-8.22 91.97-6.31L91.97-6.31L95.29-6.31L95.29-6.56Q95.31-7.35 94.89-7.79Q94.47-8.22 93.69-8.22ZM101.88-3.19L101.88-3.19Q102.66-3.19 103.17-2.73Q103.69-2.27 103.69-1.54Q103.69-0.82 103.17-0.36Q102.66 0.11 101.88 0.11L101.88 0.11Q101.08 0.11 100.57-0.36Q100.06-0.83 100.06-1.54Q100.06-2.26 100.57-2.72Q101.08-3.19 101.88-3.19ZM110.35-2.34L110.35-2.34Q111.04-2.34 111.43-2.72Q111.81-3.10 111.80-3.77L111.80-3.77L114.88-3.77Q114.88-2.03 113.64-0.92Q112.39 0.20 110.43 0.20L110.43 0.20Q108.13 0.20 106.80-1.25Q105.47-2.70 105.47-5.25L105.47-5.25L105.47-5.39Q105.47-6.99 106.06-8.22Q106.65-9.44 107.76-10.10Q108.88-10.76 110.40-10.76L110.40-10.76Q112.46-10.76 113.67-9.62Q114.88-8.48 114.88-6.52L114.88-6.52L111.80-6.52Q111.80-7.34 111.40-7.78Q111.00-8.22 110.32-8.22L110.32-8.22Q109.04-8.22 108.83-6.59L108.83-6.59Q108.76-6.07 108.76-5.17L108.76-5.17Q108.76-3.57 109.14-2.96Q109.52-2.34 110.35-2.34ZM125.52 0L122.23 0Q122.05-0.32 121.91-0.95L121.91-0.95Q121.01 0.20 119.38 0.20L119.38 0.20Q117.88 0.20 116.84-0.71Q115.79-1.61 115.79-2.98L115.79-2.98Q115.79-4.70 117.06-5.58Q118.33-6.46 120.75-6.46L120.75-6.46L121.77-6.46L121.77-7.01Q121.77-8.47 120.51-8.47L120.51-8.47Q119.34-8.47 119.34-7.31L119.34-7.31L116.04-7.31Q116.04-8.85 117.35-9.80Q118.65-10.76 120.67-10.76Q122.70-10.76 123.87-9.78Q125.04-8.79 125.07-7.07L125.07-7.07L125.07-2.39Q125.09-0.94 125.52-0.17L125.52-0.17L125.52 0ZM120.17-2.15L120.17-2.15Q120.78-2.15 121.19-2.41Q121.59-2.68 121.77-3.01L121.77-3.01L121.77-4.70L120.81-4.70Q119.09-4.70 119.09-3.15L119.09-3.15Q119.09-2.71 119.39-2.43Q119.70-2.15 120.17-2.15Z"></path></g></g></svg></svg></g></g></svg>